<?xml version="1.0" standalone="no"?>
<!DOCTYPE svg PUBLIC "-//W3C//DTD SVG 20010904//EN"
 "http://www.w3.org/TR/2001/REC-SVG-20010904/DTD/svg10.dtd">
<svg version="1.0" xmlns="http://www.w3.org/2000/svg"
 width="700.000000pt" height="700.000000pt" viewBox="0 0 700.000000 700.000000"
 preserveAspectRatio="xMidYMid meet">
<metadata>
Created by potrace 1.14, written by Peter Selinger 2001-2017
</metadata>
<g transform="translate(0.000000,700.000000) scale(0.100000,-0.100000)"
fill="#000000" stroke="none">
<path d="M3429 6596 c-131 -147 -310 -399 -399 -561 -200 -363 -357 -738 -475
-1130 -14 -49 -33 -110 -41 -134 -20 -63 -19 -69 29 -120 97 -107 215 -258
251 -321 6 -10 34 -58 63 -107 47 -80 120 -228 171 -343 50 -116 154 -454 177
-578 3 -15 7 -38 10 -52 12 -50 43 -237 50 -290 3 -30 8 -66 10 -80 4 -25 12
-102 21 -210 2 -30 7 -157 11 -282 l5 -228 -110 0 -110 0 -6 28 c-3 15 -8 52
-11 82 -6 49 -35 236 -50 315 -14 73 -69 279 -102 379 -220 680 -650 1135
-1184 1252 -134 29 -404 26 -539 -7 -25 -6 -54 -13 -64 -15 -39 -8 -123 -38
-196 -71 -65 -30 -215 -116 -230 -132 -3 -3 -25 -22 -50 -42 -259 -209 -420
-514 -429 -810 -10 -343 170 -627 512 -809 90 -48 151 -74 143 -62 -10 17 -20
146 -19 252 4 422 265 683 693 694 133 4 274 -17 390 -58 41 -14 82 -28 91
-30 9 -2 48 -20 88 -40 352 -178 586 -472 646 -813 8 -48 15 -93 15 -98 0 -7
-29 -11 -71 -12 -39 -1 -76 -6 -82 -12 -11 -11 -15 -626 -4 -638 3 -3 39 -6
79 -8 l73 -2 -2 -90 c-5 -250 -121 -531 -310 -750 l-54 -62 121 -216 c66 -119
120 -221 120 -227 0 -31 95 95 153 202 84 158 175 436 203 624 3 22 7 43 9 46
2 3 6 30 9 60 3 30 8 66 11 80 6 30 19 216 19 283 0 26 3 47 6 48 3 1 49 2
104 3 l98 2 -6 -51 c-3 -27 -8 -61 -10 -75 -3 -14 -7 -50 -10 -80 -4 -30 -8
-66 -10 -80 -3 -14 -7 -52 -11 -85 -4 -32 -8 -62 -10 -65 -2 -3 -5 -27 -9 -55
-31 -290 -128 -706 -211 -913 -19 -47 -35 -90 -35 -94 0 -4 230 -8 510 -8 281
0 510 2 510 5 0 3 -11 32 -25 64 -75 178 -141 428 -189 718 -14 81 -28 171
-32 198 -3 28 -8 59 -10 70 -4 23 -31 223 -40 305 -3 30 -10 74 -14 98 -4 23
-5 43 -1 43 24 5 194 3 197 -2 2 -3 6 -51 8 -105 5 -106 13 -199 22 -252 3
-17 7 -49 10 -69 17 -138 83 -392 135 -528 46 -118 123 -261 178 -333 l49 -63
31 56 c17 30 31 57 31 59 0 3 13 27 29 54 27 46 53 92 118 212 14 25 29 50 34
55 5 7 -15 40 -53 85 -77 95 -138 189 -187 287 -32 65 -63 143 -66 163 0 3 -3
10 -7 15 -5 9 -16 56 -36 166 -5 25 -10 82 -11 126 l-2 80 63 -2 c106 -3 98
-30 98 330 0 217 -3 316 -11 321 -6 3 -42 7 -80 7 l-70 0 5 57 c6 72 48 223
83 298 131 281 402 516 723 630 138 49 239 65 390 65 159 0 257 -21 378 -80
139 -68 263 -217 310 -373 39 -129 46 -329 16 -473 l-6 -28 38 16 c194 81 377
224 483 378 150 219 179 519 77 791 -59 156 -148 290 -280 421 -197 196 -399
300 -701 360 -16 4 -100 8 -185 10 -200 5 -306 -13 -483 -82 -342 -133 -632
-421 -836 -829 -128 -256 -234 -606 -281 -929 -16 -109 -17 -122 -25 -182 l-7
-53 -109 0 -109 0 -1 73 c-1 121 2 269 6 327 15 222 17 237 30 338 3 20 7 57
10 82 14 112 42 258 81 420 123 504 337 925 631 1240 65 70 69 38 -52 411
-206 631 -537 1249 -829 1545 l-41 41 -36 -41z"/>
</g>
</svg>
