<svg viewBox="0 0 70 70" version="1.1" xmlns="http://www.w3.org/2000/svg" xmlns:svg="http://www.w3.org/2000/svg">
   <g>
      <path
         d="m 34.686734,79.587571 c 0,0 4.58998,-2.18693 5.99579,-7.84089 -2.1978,-4.21815 -2.94004,-7.72292 -4.02871,-16.79645 l 2.05352,0.002 c 0.012,4.12086 1.12571,10.41863 3.98108,13.54526 0,0 1.12995,-2.11913 2.48849,-4.49681 -3.42335,-3.75637 -3.68652,-6.94943 -3.69428,-9.04845 l 1.03223,0.002 c 0.54998,0 0.59019,-0.0737 0.59019,-0.46288 l 0.002,-5.53288 c 0,-0.56762 -0.0385,-0.58526 -0.73766,-0.58526 -0.22931,0 -0.89605,-0.002 -0.89605,-0.002 0.85936,-12.0498 21.65697,-15.56487 19.04042,-0.97684 12.02864,-4.90113 5.85822,-19.04078 -4.96075,-19.74387 -6.94194,-0.6865 -15.4174,4.83234 -17.06205,20.74152 h -2.20838 c 0.005,-1.99954 -0.6089,-16.68917 8.12939,-25.37912 0,0 -3.00707,-12.4301 -9.725,-19.38756 -6.717228,6.95746 -9.725357,19.38756 -9.725357,19.38756 8.739347,8.68995 8.125507,23.37958 8.129747,25.37912 h -2.20733 c -1.645932,-15.90902 -10.120692,-21.42786 -17.063341,-20.74136 -10.8189623,0.70309 -16.9902303,14.84274 -4.9607493,19.74387 -2.616546,-14.58803 18.1810633,-11.07296 19.0411333,0.97684 0,0 -0.667807,0.002 -0.896759,0.002 -0.698498,0 -0.737656,0.0176 -0.737656,0.58526 l 0.0021,5.53288 c 0,0.38915 0.04022,0.46288 0.588785,0.46288 l 1.033284,-0.002 c -0.0074,2.09902 -0.270933,5.29208 -3.69428,9.04845 1.357838,2.37768 2.488841,4.49681 2.488841,4.49681 2.855372,-3.12663 3.968732,-9.4244 3.981082,-13.54526 l 2.05316,-0.002 c -1.08867,9.07353 -1.83091,12.5783 -4.029058,16.79645 1.407218,5.65396 5.996148,7.84089 5.996148,7.84089"
         style="fill:#e9ede5;stroke:none;" />
   </g>
</svg>